<?xml version="1.0" encoding="utf-8"?><svg viewBox="0 0 33 33" xmlns="http://www.w3.org/2000/svg" xmlns:xlink="http://www.w3.org/1999/xlink"><style>:root>svg{display:none}:root>svg:target{display:block}</style><svg fill="none" viewBox="0 0 32 32" id="add" xmlns="http://www.w3.org/2000/svg"><path d="M17.6 14.4V8h-3.2v6.4H8v3.2h6.4V24h3.2v-6.4H24v-3.2h-6.4z" fill="#C0C9CD"/><path d="M16 0C7.163 0 0 7.163 0 16s7.163 16 16 16 16-7.163 16-16S24.837 0 16 0zm0 29.104C8.763 29.104 2.896 23.237 2.896 16 2.896 8.763 8.763 2.896 16 2.896c7.233.009 13.095 5.87 13.104 13.104 0 7.237-5.867 13.104-13.104 13.104z" fill="#C0C9CD"/></svg><svg fill="none" viewBox="0 0 16 16" id="arrow-right" xmlns="http://www.w3.org/2000/svg"><g clip-path="url(#bclip0)"><path d="M12.445 7.376L5.325.256A.869.869 0 004.706 0a.869.869 0 00-.619.256L3.563.78a.876.876 0 000 1.238l5.979 5.979-5.986 5.985a.87.87 0 00-.255.62c0 .234.09.453.255.618l.524.524A.87.87 0 004.7 16c.234 0 .454-.09.618-.256l7.127-7.126a.87.87 0 00.255-.62.87.87 0 00-.255-.622z" fill="#FB837A"/></g><defs><clipPath id="bclip0"><rect width="16" height="16" rx="5" fill="#fff"/></clipPath></defs></svg><svg fill="none" viewBox="0 0 32 32" id="avito" xmlns="http://www.w3.org/2000/svg"><circle cx="7.164" cy="7.164" r="7.164" fill="#C0C9CD"/><circle cx="23.259" cy="6.639" r="5.97" fill="#C0C9CD"/><circle cx="23.164" cy="23.164" r="8.836" fill="#C0C9CD"/><circle cx="7.212" cy="23.164" r="4.06" fill="#C0C9CD"/></svg><svg fill="none" viewBox="0 0 16 16" id="empty-green-mark" xmlns="http://www.w3.org/2000/svg"><g clip-path="url(#dclip0)" fill="#ADC8A8"><path d="M2.353 13.648A7.958 7.958 0 008 15.987a7.96 7.96 0 005.647-2.34 7.959 7.959 0 002.34-5.646 7.958 7.958 0 00-2.34-5.647A7.958 7.958 0 008 .013a7.958 7.958 0 00-5.647 2.34A7.958 7.958 0 00.013 8a7.96 7.96 0 002.34 5.647zM8 1.18a6.82 6.82 0 110 13.641 6.82 6.82 0 010-13.64z"/><path d="M8 16a7.972 7.972 0 01-5.657-2.343A7.972 7.972 0 010 8.002a7.972 7.972 0 012.343-5.657A7.972 7.972 0 018 .001a7.972 7.972 0 015.657 2.343A7.97 7.97 0 0116 8.001a7.972 7.972 0 01-2.343 5.657A7.973 7.973 0 018 16zM8 .029a7.945 7.945 0 00-5.638 2.335A7.945 7.945 0 00.027 8.001a7.945 7.945 0 002.335 5.638A7.944 7.944 0 008 15.974a7.945 7.945 0 005.638-2.335A7.945 7.945 0 0015.973 8a7.943 7.943 0 00-2.335-5.638A7.946 7.946 0 008 .028zm0 14.807a6.79 6.79 0 01-4.832-2.002 6.79 6.79 0 01-2.002-4.832 6.79 6.79 0 012.002-4.832A6.79 6.79 0 018 1.167a6.79 6.79 0 014.832 2.002A6.79 6.79 0 0114.834 8a6.79 6.79 0 01-2.002 4.832A6.79 6.79 0 018 14.835zm0-13.64a6.762 6.762 0 00-4.813 1.993A6.762 6.762 0 001.193 8c0 1.818.708 3.527 1.994 4.813A6.762 6.762 0 008 14.808a6.762 6.762 0 004.813-1.994 6.762 6.762 0 001.994-4.813 6.763 6.763 0 00-1.994-4.813A6.762 6.762 0 008 1.194z"/><path d="M6.232 10.908a.583.583 0 00.825 0l4.99-4.99a.583.583 0 10-.824-.825L6.644 9.672 4.777 7.805a.583.583 0 10-.824.824l2.28 2.28z"/><path d="M6.644 11.092a.593.593 0 01-.422-.175L3.943 8.638a.597.597 0 01.844-.844l1.857 1.858 4.57-4.57a.592.592 0 01.843 0 .593.593 0 010 .845l-4.991 4.99a.592.592 0 01-.422.175zm-2.28-3.445a.57.57 0 00-.403.972l2.28 2.28a.566.566 0 00.806 0l4.99-4.992a.566.566 0 000-.805.566.566 0 00-.805 0L6.644 9.69 4.767 7.814a.565.565 0 00-.402-.167z"/></g><defs><clipPath id="dclip0"><path fill="#fff" d="M0 0h16v16H0z"/></clipPath></defs></svg><svg fill="none" viewBox="0 0 16 16" id="eye" xmlns="http://www.w3.org/2000/svg"><path d="M15.898 7.689C15.755 7.493 12.35 2.9 8 2.9S.244 7.493.102 7.688a.528.528 0 000 .623C.244 8.507 3.65 13.099 8 13.099s7.755-4.593 7.898-4.788a.527.527 0 000-.622zM8 12.044c-3.204 0-5.98-3.048-6.8-4.045.82-.997 3.589-4.043 6.8-4.043 3.204 0 5.979 3.047 6.8 4.044-.82.997-3.59 4.044-6.8 4.044z" fill="#C0C9CD"/><path d="M8 4.835A3.168 3.168 0 004.835 8 3.169 3.169 0 008 11.165 3.168 3.168 0 0011.165 8 3.168 3.168 0 008 4.835zm0 5.275A2.112 2.112 0 015.89 8c0-1.164.946-2.11 2.11-2.11 1.163 0 2.11.946 2.11 2.11 0 1.163-.947 2.11-2.11 2.11z" fill="#C0C9CD"/></svg><svg fill="none" viewBox="0 0 16 16" id="green-mark" xmlns="http://www.w3.org/2000/svg"><path d="M8 0C3.589 0 0 3.589 0 8s3.589 8 8 8 8-3.589 8-8-3.589-8-8-8zm4.055 6.305L7.72 10.638a.665.665 0 01-.942 0L4.612 8.471a.666.666 0 11.943-.942L7.25 9.224l3.862-3.862a.666.666 0 11.943.943z" fill="#6DCC5C"/></svg><svg fill="none" viewBox="0 0 32 32" id="instagram" xmlns="http://www.w3.org/2000/svg"><g clip-path="url(#gclip0)" fill="#C0C9CD"><path d="M31.97 9.408c-.076-1.7-.35-2.87-.745-3.882a7.81 7.81 0 00-1.85-2.838A7.875 7.875 0 0026.543.844C25.524.45 24.361.175 22.661.1 20.948.02 20.404 0 16.06 0c-4.345 0-4.889.019-6.595.094-1.7.075-2.87.35-3.882.744a7.808 7.808 0 00-2.838 1.85A7.878 7.878 0 00.9 5.52C.507 6.539.23 7.7.157 9.402c-.082 1.713-.1 2.257-.1 6.601 0 4.345.018 4.889.093 6.595.075 1.7.35 2.87.744 3.882a7.891 7.891 0 001.85 2.838c.8.813 1.77 1.444 2.833 1.844 1.019.394 2.181.67 3.882.744 1.706.075 2.25.094 6.595.094 4.344 0 4.888-.019 6.595-.094 1.7-.075 2.869-.35 3.881-.744a8.184 8.184 0 004.683-4.682c.393-1.019.669-2.182.744-3.882.075-1.706.093-2.25.093-6.595s-.006-4.888-.08-6.595zm-2.883 13.065c-.069 1.563-.331 2.407-.55 2.97A5.308 5.308 0 0125.5 28.48c-.563.218-1.413.481-2.97.55-1.687.075-2.193.093-6.463.093s-4.782-.018-6.464-.093c-1.563-.069-2.407-.331-2.97-.55a4.925 4.925 0 01-1.837-1.194 4.975 4.975 0 01-1.194-1.838c-.219-.563-.481-1.413-.55-2.97-.075-1.687-.094-2.194-.094-6.463 0-4.27.019-4.783.094-6.464.069-1.563.331-2.407.55-2.97a4.864 4.864 0 011.2-1.837A4.968 4.968 0 016.64 3.55c.563-.22 1.413-.482 2.97-.55 1.687-.075 2.194-.094 6.463-.094 4.276 0 4.782.019 6.464.094 1.563.068 2.407.331 2.97.55a4.921 4.921 0 011.837 1.194 4.973 4.973 0 011.194 1.838c.219.562.482 1.412.55 2.969.075 1.688.094 2.194.094 6.464 0 4.27-.019 4.77-.094 6.457z"/><path d="M16.06 7.783a8.222 8.222 0 00-8.22 8.22 8.222 8.222 0 008.22 8.22 8.222 8.222 0 008.22-8.22 8.222 8.222 0 00-8.22-8.22zm0 13.552a5.333 5.333 0 11.001-10.666 5.333 5.333 0 01-.001 10.666zM26.524 7.458a1.92 1.92 0 11-3.838 0 1.92 1.92 0 013.838 0z"/></g><defs><clipPath id="gclip0"><path fill="#fff" d="M0 0h32v32H0z"/></clipPath></defs></svg><svg fill="none" viewBox="0 0 26 30" id="pdf" xmlns="http://www.w3.org/2000/svg"><path d="M6.837 19.3c0-.497-.346-.794-.956-.794-.25 0-.418.024-.506.048v1.598c.104.024.233.032.41.032.65 0 1.052-.329 1.052-.883zM10.613 18.523c-.274 0-.45.023-.554.048v3.54c.104.024.273.024.425.024 1.108.008 1.831-.602 1.831-1.894.008-1.124-.65-1.718-1.702-1.718z" fill="#000"/><path d="M17.629 0H5.579a3.198 3.198 0 00-3.192 3.193V15h-.312c-.71 0-1.287.576-1.287 1.287v7.803c0 .71.576 1.286 1.287 1.286h.312v1.431A3.196 3.196 0 005.58 30h16.44a3.196 3.196 0 003.192-3.193V7.557L17.63 0zM4.163 17.695c.378-.064.908-.112 1.654-.112.755 0 1.293.144 1.654.433.345.273.578.723.578 1.253 0 .53-.176.98-.497 1.284-.418.394-1.036.57-1.759.57-.16 0-.305-.008-.417-.023v1.934H4.163v-5.34zm17.857 10.35H5.58a1.239 1.239 0 01-1.237-1.238v-1.43h15.326c.71 0 1.287-.576 1.287-1.287v-7.803c0-.711-.576-1.287-1.287-1.287H4.343V3.193c0-.68.555-1.236 1.237-1.236l11.317-.011v4.183c0 1.222.992 2.214 2.215 2.214l4.098-.012.046 18.476c0 .683-.554 1.238-1.236 1.238zM8.83 23.01v-5.315c.45-.072 1.036-.112 1.655-.112 1.027 0 1.694.184 2.216.578.562.417.915 1.083.915 2.04 0 1.035-.377 1.75-.9 2.191-.57.474-1.436.698-2.496.698a10.6 10.6 0 01-1.39-.08zm8.763-3.147v.995H15.65v2.177h-1.228v-5.412h3.308v1.003h-2.08v1.237h1.943z" fill="#000"/></svg><svg fill="none" viewBox="0 0 16 16" id="play" xmlns="http://www.w3.org/2000/svg"><path d="M8 0a8 8 0 100 16A8 8 0 008 0zm0 14.528A6.528 6.528 0 018 1.472 6.536 6.536 0 0114.528 8 6.528 6.528 0 018 14.528z" fill="#ADC8A8"/><path d="M5.6 3.304v9.392L12.64 8 5.6 3.304zm1.6 2.808L10.088 8 7.2 9.848V6.112z" fill="#ADC8A8"/></svg><svg fill="none" viewBox="0 0 32 32" id="settings" xmlns="http://www.w3.org/2000/svg"><path d="M31.042 19.507l-2.942-2.3c.038-.355.07-.77.07-1.208 0-.439-.031-.854-.07-1.208l2.944-2.302c.547-.432.696-1.198.348-1.837L28.334 5.36c-.327-.597-1.043-.904-1.77-.636l-3.47 1.393a11.9 11.9 0 00-2.084-1.209l-.528-3.681A1.416 1.416 0 0019.068 0h-6.133c-.719 0-1.325.528-1.41 1.216l-.53 3.695c-.699.314-1.385.714-2.08 1.209l-3.48-1.397c-.652-.252-1.432.03-1.756.625L.616 10.647a1.434 1.434 0 00.347 1.846l2.941 2.3c-.046.45-.069.84-.069 1.207 0 .367.023.757.07 1.208L.96 19.51c-.546.434-.694 1.2-.346 1.838l3.058 5.292c.327.596 1.036.905 1.77.636l3.47-1.394c.664.48 1.362.884 2.083 1.21l.528 3.68c.087.701.693 1.229 1.413 1.229h6.134c.718 0 1.326-.528 1.412-1.216l.529-3.693a12.324 12.324 0 002.08-1.211l3.48 1.397c.168.066.343.099.523.099.517 0 .993-.283 1.233-.723l3.072-5.32a1.44 1.44 0 00-.357-1.826zm-15.04 1.826A5.339 5.339 0 0110.668 16a5.339 5.339 0 015.334-5.333A5.339 5.339 0 0121.335 16a5.339 5.339 0 01-5.333 5.333z" fill="#C0C9CD"/></svg><svg fill="none" viewBox="0 0 32 32" id="sundress" xmlns="http://www.w3.org/2000/svg"><path d="M26.58 8.396c-1.29-4.674-4.21-7.663-6.792-6.949-1.197.33-2.047 1.416-2.419 3.057l-1.037 1.294a13.716 13.716 0 01-5.193 4.528l-.338.166A5.031 5.031 0 008 15.02v3.48A1.502 1.502 0 009.5 20h.361a1.35 1.35 0 000 .933H8a.5.5 0 00-.5.5v9.113a.5.5 0 00.5.5h1.709a.499.499 0 00.382-.179l1.559-1.856h8.646l1.559 1.856a.5.5 0 00.383.179h1.708a.5.5 0 00.5-.5v-9.113a.5.5 0 00-.5-.5h-1.53a1.45 1.45 0 00.084-.466A1.468 1.468 0 0021.033 19h-2.125c.059-.16.09-.329.092-.5a1.5 1.5 0 10-3 0c.002.17.033.34.092.5H15v-.5a1.502 1.502 0 00-1.5-1.5h-2.22v-2.177a16.086 16.086 0 018.06 1.28l1.472.645c1.01 1.115 2.11 1.76 3.152 1.76.22 0 .44-.03.653-.088 2.465-.68 3.327-5.083 1.963-10.024zM9.475 30.046H8.5V29.01h1.844l-.869 1.035zm13.971 0h-.975l-.87-1.035h1.845v1.035zm0-2.035H8.5v-6.078h14.946v6.078zM21.5 20.467a.467.467 0 01-.467.466h-9.789a.465.465 0 110-.933h9.79a.467.467 0 01.466.467zM17 18.5a.5.5 0 111 0 .5.5 0 01-1 0zm-3 0v.5H9.5a.5.5 0 01-.5-.5V18h4.5a.501.501 0 01.5.5zm-3.281-4.621a.5.5 0 00-.44.496V17H9v-1.98a4.035 4.035 0 012.246-3.631l.337-.166a14.665 14.665 0 005.552-4.83l.025-.031c-.023 1.341.186 2.851.63 4.46.455 1.649 1.093 3.116 1.832 4.318a16.969 16.969 0 00-8.903-1.261zm13.632 3.577c-.811.224-1.86-.305-2.871-1.45a.488.488 0 00-.029-.031c-1.042-1.194-2.042-3.045-2.698-5.418-.588-2.13-.749-4.138-.453-5.653.268-1.369.89-2.254 1.754-2.492.16-.044.327-.066.493-.066 1.711 0 3.932 2.198 5.07 6.316 1.295 4.694.391 8.337-1.266 8.794z" fill="#C0C9CD"/><path d="M9.5 23.5v3a.5.5 0 00.5.5h12a.5.5 0 00.5-.5v-3a.5.5 0 00-.5-.5H10a.5.5 0 00-.5.5zm1 .5h11v2h-11v-2z" fill="#C0C9CD"/></svg><svg fill="none" viewBox="0 0 32 32" id="traffic" xmlns="http://www.w3.org/2000/svg"><g clip-path="url(#lclip0)" fill="#C0C9CD"><path d="M.479 23.293l2.219.536a.63.63 0 00.146.017h12.667c.345 0 .625-.28.625-.626V6.356a.626.626 0 10-1.25 0v9.786h-.6a8.291 8.291 0 01-3.5-.78l-.531-9.042a.626.626 0 10-1.248.073l.527 8.963-4.322 1.788a1.97 1.97 0 01-.375.113l-.005.001a1.962 1.962 0 01-.372.036h-.002l-.958-.001h-.005a3.247 3.247 0 00-3.059 2.17l-.4 1.14a.627.627 0 00-.035.208H0v1.873c0 .29.198.541.479.609zm2.44-.7l-1.669-.402v-.57l1.39.363c.052.013.105.02.158.02h12.088v.59H2.918zM1.614 19.88a1.996 1.996 0 011.88-1.334h.003l.958.001h.004c.09 0 .18-.004.269-.012l.973.976a.623.623 0 00.884 0 .627.627 0 000-.886l-.49-.49.781-.323.98.982a.622.622 0 00.884 0 .627.627 0 000-.885l-.613-.615.587-.243.97.972a.622.622 0 00.883 0 .627.627 0 000-.886l-.602-.604.194-.08a9.545 9.545 0 004.125.943h.6v3.356H2.879l-1.438-.375.175-.497zM17.033 23.451a.63.63 0 00.073.198l.935 1.622a.624.624 0 00.718.288l2.189-.648a.62.62 0 00.135-.058l10.103-5.845c.376-.217.645-.569.757-.989.113-.42.055-.86-.162-1.236l-.419-.727-2.274-3.946-3.128-8.415a.624.624 0 10-1.172.438l2.963 7.967-.604.349A8.29 8.29 0 0123.8 13.52l-3.3-7.419a.624.624 0 10-1.142.51l3.327 7.48-2.895 3.772a1.993 1.993 0 01-.579.507l-.83.479a3.255 3.255 0 00-1.57 3.414l.222 1.188zm13.703-5.756a.374.374 0 01-.175.229L20.523 23.73l-1.646.487-.284-.494 1.384-.382a.642.642 0 00.147-.061l10.468-6.056.107.184c.05.088.063.189.037.286zm-11.732 2.24l.83-.48c.08-.045.157-.095.231-.147l1.33.357a.625.625 0 00.323-1.21l-.669-.179.515-.67 1.34.359a.626.626 0 00.323-1.21l-.838-.225.387-.504 1.325.356a.626.626 0 00.324-1.21l-.824-.221.129-.167a9.548 9.548 0 004.043-1.25l.52-.301 1.674 2.907-10.399 6.016-1.431.395-.098-.518a2 2 0 01.965-2.099zM6.792 26.452H.625a.626.626 0 000 1.252h6.167a.626.626 0 000-1.252zM9.937 26.452a.63.63 0 00-.625.626.63.63 0 00.625.626.629.629 0 00.625-.626.63.63 0 00-.625-.626zM31.372 25.007h-6.166a.626.626 0 000 1.253h6.166a.626.626 0 000-1.253zM22.166 27.516H16a.626.626 0 000 1.253h6.166a.626.626 0 000-1.253z"/></g><defs><clipPath id="lclip0"><path fill="#fff" d="M0 0h32v32H0z"/></clipPath></defs></svg><svg fill="none" viewBox="0 0 33 33" id="upload" xmlns="http://www.w3.org/2000/svg"><g clip-path="url(#mclip0)" fill="#C0C9CD"><path d="M20.896 23.81l-2.403 2.403-.637 1.341V14.541H15.2v12.947l-.611-1.248-2.43-2.43-1.806 1.686 6.175 6.175 6.121-6.109-1.753-1.752z"/><path d="M25.16 7.822h-.134a9.92 9.92 0 00-9.241-6.493c-5.478-.037-9.95 4.374-9.986 9.852v.625a5.352 5.352 0 10.106 10.702h6.64v-2.656h-6.64a2.709 2.709 0 010-5.417c.345 0 2.656.106 2.656.106s-.12-2.736-.12-3.36a7.25 7.25 0 0114.341-1.62l.28 1.235 1.247-.225a4.64 4.64 0 01.85-.093 4.687 4.687 0 110 9.374h-4.647v2.656h4.647a7.343 7.343 0 000-14.686z"/></g><defs><clipPath id="mclip0"><path fill="#fff" transform="translate(.5 .5)" d="M0 0h32v32H0z"/></clipPath></defs></svg></svg>